<?xml version="1.0" encoding="utf-8"?>
<!-- Generator: Adobe Illustrator 23.1.1, SVG Export Plug-In . SVG Version: 6.00 Build 0)  -->
<svg version="1.1" id="Layer_1" xmlns="http://www.w3.org/2000/svg" xmlns:xlink="http://www.w3.org/1999/xlink" x="0px" y="0px"
	 viewBox="0 0 179.2 76.4" style="enable-background:new 0 0 179.2 76.4;" xml:space="preserve">
<style type="text/css">
	.st0{fill-rule:evenodd;clip-rule:evenodd;fill:url(#SVGID_1_);}
	.st1{fill:url(#SVGID_2_);}
	.st2{fill:url(#SVGID_3_);}
	.st3{fill:url(#SVGID_4_);}
	.st4{fill:url(#SVGID_5_);}
</style>
<g>
	<g>
		<g>
			<linearGradient id="SVGID_1_" gradientUnits="userSpaceOnUse" x1="4.2305" y1="34.2753" x2="177.1606" y2="34.2753">
				<stop  offset="0" style="stop-color:#A66B1B"/>
				<stop  offset="0.5" style="stop-color:#F3D180"/>
				<stop  offset="1" style="stop-color:#A66B1B"/>
			</linearGradient>
			<path class="st0" d="M168.9,38.9c2.8,1.8,6.7,3,7.3,6.3c0.4,2.2-1.6,3.5-1.6,5.8c0.1,3.1,4.3,5.7,1.6,7.9
				c-3.7,1.2-9-0.4-13.1-0.5c-1.5-21.9-24-23.5-45.6-26.7c-18.2-2.8-35.4-3.4-53-4.2c-16.7-0.7-34.4,1.5-49.3,0
				c-4.6-0.5-9.4-1.3-11-5.8c29.1-1.7,47.3-14,75.5-12.1c9.1,0.6,17.3,3,24.1,5.8c6.8,2.7,12.5,7.6,19.9,10c14.1,4.5,28,3.2,39.9,10
				c-1.9,1.5-4.1-1.2-6.8-0.5c4.5,2.3,7.3,6.4,13.1,7.3C170.1,40.5,168.8,40.4,168.9,38.9z M48.3,19c16.3,5.7,36.7,7,57.2,9.4
				c17.4,2.1,43.7,2.3,54,13.1c5.1,5.3,5.4,15.1,14.7,13.1c-2.3-0.1-4.5-0.4-4.7-2.6c0.1-2.9,3.8-2.1,3.7-5.2
				c-8.7-6.5-17.7-11.9-30.4-14.7c-12.2-2.7-25.6-4.3-38.8-6.3c4.9-0.3,11.2,0.7,15.2-0.5C103.7,13.1,69,8,48.3,19z"/>
			<g>
				<g>
					<linearGradient id="SVGID_2_" gradientUnits="userSpaceOnUse" x1="59.9229" y1="36.6501" x2="126.0811" y2="36.6501">
						<stop  offset="0" style="stop-color:#A66B1B"/>
						<stop  offset="0.5" style="stop-color:#F3D180"/>
						<stop  offset="1" style="stop-color:#A66B1B"/>
					</linearGradient>
					<path class="st1" d="M126.1,39.6c0,0-3.7-0.7-9.6-1.5c-6-0.8-14.2-1.5-23.3-2c-18.3-1.1-33.2-1-33.2-1c0,0.1,14.9-2.2,33.3-1.2
						c9.2,0.5,17.5,1.8,23.4,3.1C122.6,38.4,126.1,39.6,126.1,39.6z"/>
				</g>
				<g>
					<linearGradient id="SVGID_3_" gradientUnits="userSpaceOnUse" x1="2.0235" y1="43.8493" x2="104.6416" y2="43.8493">
						<stop  offset="0" style="stop-color:#A66B1B"/>
						<stop  offset="0.5" style="stop-color:#F3D180"/>
						<stop  offset="1" style="stop-color:#A66B1B"/>
					</linearGradient>
					<path class="st2" d="M104.6,54l-21.9,0.3L59,54.4l-6.9,0l-3.5,0l-2.5,0l-0.9,0c-0.1,0-0.2,0-0.2,0l0-0.2l0.1-0.4l0.3-1.7
						c0.7-4.6-1-9.5-4.7-12.6c-2.8-2.5-6.6-3.9-10.2-4c-3.6-0.2-7.2,1-10,3c-2.8,2-4.6,5-5.5,8.1c-0.5,1.6-0.8,3.1-0.9,4.7
						C14,51.9,14,52.7,14,53.5l0,1.1c0,0.4,0.1,1.2,0.2,1.8c-2.2,0.3-3.1,0.2-4.3-0.1c-1.2-0.3-2.3-0.9-3.2-1.6
						c-1.7-1.5-2.7-3.5-3.3-5.4c-1.2-3.7-1.3-7.1-1.3-9.8c0-5.5,0.6-8.5,0.6-8.5c0,0-0.4,3.1-0.1,8.5c0.2,2.7,0.5,6,1.7,9.5
						c0.6,1.7,1.6,3.5,3.1,4.8c0.8,0.6,1.7,1.1,2.7,1.3c0.9,0.2,2.4,0.2,2.5,0.1c0-0.2,0-0.2-0.1-0.5l0-1.2c0-0.8,0-1.6,0.1-2.5
						c0.1-1.7,0.4-3.4,0.9-5c0.9-3.4,2.9-6.8,6-9.2c3.1-2.3,7.1-3.7,11.2-3.5c4.1,0.1,8.3,1.6,11.6,4.5c2.1,1.8,3.7,4.1,4.6,6.7
						c0.9,2.5,1.1,5.3,0.8,7.8c0,0.1,0,0.1,0,0.1l0,0l0.2,0l0.9,0l3.5,0.1l6.9,0.1l23.7,0.6L104.6,54z"/>
				</g>
				<g>
					<linearGradient id="SVGID_4_" gradientUnits="userSpaceOnUse" x1="45.6944" y1="43.587" x2="64.9512" y2="43.587">
						<stop  offset="0" style="stop-color:#A66B1B"/>
						<stop  offset="0.5" style="stop-color:#F3D180"/>
						<stop  offset="1" style="stop-color:#A66B1B"/>
					</linearGradient>
					<path class="st3" d="M45.7,56.5l5-0.2L61.6,56l-0.1-0.1c0,0,0,0,0,0l-0.2-0.1L61,55.6l-0.6-0.5c-0.9-0.7-1.7-1.4-2.5-2.3
						c-2.4-2.5-4-5.3-5-8.1c-1-2.8-1.4-5.4-1.5-7.6c-0.2-4.4,0.5-7,0.5-7c0,0-0.5,2.7,0,7c0.5,4.2,2.2,10.2,6.7,14.9
						c0.8,0.8,1.5,1.5,2.4,2.2l0.6,0.5l0.8,0.6L65,57L59.6,57l-3.4-0.1l-5.6-0.2L45.7,56.5z"/>
				</g>
			</g>
			<g>
				<linearGradient id="SVGID_5_" gradientUnits="userSpaceOnUse" x1="101.8936" y1="51.8599" x2="129.5069" y2="51.8599">
					<stop  offset="0" style="stop-color:#A66B1B"/>
					<stop  offset="0.5" style="stop-color:#F3D180"/>
					<stop  offset="1" style="stop-color:#A66B1B"/>
				</linearGradient>
				<path class="st4" d="M125.4,56.8c-1.2-0.1-2.5-0.2-3.8-0.3c-10.9-0.8-19.7-0.1-19.7-0.1c0,0,8.8,0.2,19.6,1
					c1.3,0.1,2.5,0.2,3.7,0.3l1.8,0.2l0.9,0.1l1.6,0.2c-0.2-0.4-0.5-0.8-0.7-1.2l-0.2-0.4l-0.1-0.3c-0.2-0.4-0.3-0.8-0.5-1.2
					c-0.3-0.8-0.5-1.5-0.6-2.2c-0.3-1.4-0.3-2.8-0.2-3.8c0.2-2.2,0.7-3.4,0.7-3.4c0,0-0.6,1.1-1,3.3c-0.2,1.1-0.2,2.4,0,4
					c0.1,0.8,0.3,1.5,0.5,2.4c0.1,0.4,0.5,1.5,0.7,1.9C128.1,57.2,127.1,57,125.4,56.8z"/>
			</g>
		</g>
	</g>
</g>
</svg>
